<?xml version="1.0" encoding="utf-8"?>
<!-- Generator: Adobe Illustrator 25.2.3, SVG Export Plug-In . SVG Version: 6.00 Build 0)  -->
<!DOCTYPE svg PUBLIC "-//W3C//DTD SVG 1.1//EN" "http://www.w3.org/Graphics/SVG/1.1/DTD/svg11.dtd" [
	<!ENTITY ns_extend "http://ns.adobe.com/Extensibility/1.0/">
	<!ENTITY ns_ai "http://ns.adobe.com/AdobeIllustrator/10.0/">
	<!ENTITY ns_graphs "http://ns.adobe.com/Graphs/1.0/">
	<!ENTITY ns_vars "http://ns.adobe.com/Variables/1.0/">
	<!ENTITY ns_imrep "http://ns.adobe.com/ImageReplacement/1.0/">
	<!ENTITY ns_sfw "http://ns.adobe.com/SaveForWeb/1.0/">
	<!ENTITY ns_custom "http://ns.adobe.com/GenericCustomNamespace/1.0/">
	<!ENTITY ns_adobe_xpath "http://ns.adobe.com/XPath/1.0/">
]>
<svg version="1.1" id="Capa_1" xmlns:x="&ns_extend;" xmlns:i="&ns_ai;" xmlns:graph="&ns_graphs;"
	 xmlns="http://www.w3.org/2000/svg" xmlns:xlink="http://www.w3.org/1999/xlink" x="0px" y="0px" viewBox="0 0 565 512.3"
	 style="enable-background:new 0 0 565 512.3;" xml:space="preserve">
<style type="text/css">
	.st0{fill:#2E2D4C;}
	.st1{fill:#FFFFFF;}
	.st2{fill:#E6E6E6;}
	.st3{fill:#CCCCCC;}
	.st4{fill:#FFB6B6;}
	.st5{fill:#2F2E41;}
	.st6{fill:#BCBCBC;}
	.st7{fill-rule:evenodd;clip-rule:evenodd;fill:#0A3871;}
</style>
<metadata>
	<sfw  xmlns="&ns_sfw;">
		<slices></slices>
		<sliceSourceBounds  bottomLeftOrigin="true" height="512.3" width="565" x="0" y="0"></sliceSourceBounds>
	</sfw>
</metadata>
<g>
	<path class="st0" d="M390.4,511H230.1c-24,0-43.6-19.6-43.6-43.6V43.6c0-24,19.6-43.6,43.6-43.6h160.3c24,0,43.6,19.6,43.6,43.6
		c3,170.2,8.1,360.8,0,423.8C434,491.4,414.5,511,390.4,511L390.4,511z"/>
	<path class="st0" d="M436.3,155.9c-1,0-1.8,0.8-1.8,1.8v59c0,1,0.8,1.8,1.8,1.8s1.8-0.8,1.8-1.8v-59
		C438.1,156.7,437.3,155.9,436.3,155.9z"/>
	<path class="st1" d="M429.9,43.6v423.8c0,20.9-16.3,38-36.9,39.4h0c-0.3,0-0.6,0-0.9,0c-0.5,0-1.1,0-1.6,0c0,0-2-0.1-5.7-0.4
		c-3.7-0.3-9.2-0.7-16-1.2c-2-0.2-4.2-0.3-6.5-0.5c-4.5-0.4-9.5-0.8-14.8-1.2c-2.1-0.2-4.3-0.4-6.6-0.6c-11.5-1-24.3-2.1-37.8-3.4
		c-2.3-0.2-4.6-0.4-6.9-0.7c-0.6-0.1-105.5-26.4-105.5-31.4V43.6c0-21.8,17.7-39.5,39.5-39.5h23.6c3.8,0,6.8,2.9,7.1,6.7
		c0,0.2,0.1,0.5,0.1,0.7c0.7,3.8,4.1,6.4,8,6.4h82.8c3.8,0,7.3-2.6,8-6.4c0-0.2,0.1-0.5,0.1-0.7c0.3-3.8,3.3-6.7,7.1-6.7h23.6
		C412.2,4.1,429.9,21.8,429.9,43.6L429.9,43.6z"/>
	<path class="st0" d="M185.6,111.6c-1,0-1.8,0.8-1.8,1.8v14.8c0,1,0.8,1.8,1.8,1.8s1.8-0.8,1.8-1.8v-14.8
		C187.4,112.4,186.6,111.6,185.6,111.6z"/>
	<path class="st0" d="M185.6,155.9c-1,0-1.8,0.8-1.8,1.8v28.6c0,1,0.8,1.8,1.8,1.8s1.8-0.8,1.8-1.8v-28.6
		C187.4,156.7,186.6,155.9,185.6,155.9L185.6,155.9z"/>
	<path class="st0" d="M185.6,196.5c-1,0-1.8,0.8-1.8,1.8v28.6c0,1,0.8,1.8,1.8,1.8s1.8-0.8,1.8-1.8v-28.6
		C187.4,197.3,186.6,196.5,185.6,196.5z"/>
	<path class="st2" d="M217.7,10.6h35.4c0.2,0,0.3,0.1,0.3,0.3v4c0,0.2-0.1,0.3-0.3,0.3h-35.4c-0.2,0-0.3-0.1-0.3-0.3v-4
		C217.4,10.7,217.5,10.6,217.7,10.6z"/>
	<circle class="st2" cx="372.7" cy="11.5" r="3.7"/>
	<circle class="st2" cx="382.8" cy="11.5" r="3.7"/>
	<circle class="st2" cx="393" cy="11.5" r="3.7"/>
</g>
<path class="st3" d="M14.3,511.1c0,0.7,0.5,1.2,1.2,1.2h548.3c0.7,0,1.2-0.5,1.2-1.2c0-0.7-0.5-1.2-1.2-1.2H15.5
	C14.8,509.9,14.3,510.4,14.3,511.1z"/>
<g>
	<polygon class="st4" points="189.1,503.3 177.9,503.3 172.5,459.9 189.1,459.9 	"/>
	<path class="st5" d="M150.6,503L150.6,503c-0.4,0.6-0.5,2.5-0.5,3.2l0,0c0,2.1,1.7,3.8,3.8,3.8h34.8c1.4,0,2.6-1.2,2.6-2.6V506
		c0,0,1.7-4.4-1.8-9.7c0,0-4.4,4.2-11-2.4l-1.9-3.5l-14.1,10.3l-7.8,1C153,501.8,151.5,501.6,150.6,503L150.6,503L150.6,503
		L150.6,503z"/>
</g>
<g>
	<polygon class="st4" points="127,443.1 115.7,443 110.5,399.6 127.1,399.7 	"/>
	<path class="st5" d="M88.4,442.7L88.4,442.7c-0.4,0.6-0.5,2.5-0.5,3.2l0,0c0,2.1,1.7,3.8,3.8,3.8l34.8,0.1c1.4,0,2.6-1.2,2.6-2.6
		l0-1.4c0,0,1.7-4.4-1.8-9.7c0,0-4.4,4.2-11-2.4l-1.9-3.5l-14.1,10.2l-7.8,0.9C90.8,441.4,89.3,441.2,88.4,442.7L88.4,442.7
		L88.4,442.7z"/>
</g>
<path class="st5" d="M172.7,240l-14,1c0,0-47.4,26.9-51.4,32.9s-9.5,14.5-4.5,23.5s1.2,118,1.2,118l23.9-5.4l15.3-114l32-4.5
	c0,0,11,23.7,7,43.4s-6,31.6-6,31.6l-5,116l19.5-0.5l17.5-107.5l30-85l-39-46L172.7,240z"/>
<path class="st6" d="M241.7,117l-29,3l-3,10l-28,15l9,63l-7,11l3,11c0,0-8,1-7,7l-18,3c0,0,23.9,4.9,28.9,28.9s47.1,27.1,47.1,27.1
	l33-103l3-61l-23-6L241.7,117z"/>
<circle class="st4" cx="226.5" cy="90.7" r="22.5"/>
<path class="st5" d="M214.7,111L214.7,111c0,0-20-1-18-17c-5-17-0.6-28.1,15-32c0,0,4-1,5-1c13.2,0,20,4,20,4s-1-4,0-3s2,3,2,3
	s10,5,10,15s0,6,0,6s-2,0-4-6s-14.9-2-14.9-2l0.9,2l-3-1l-3,3l-2-1c0,0-8,0-7,0s0.3,6.8,0.3,6.8l-7.3,8.2l8,15H214.7z"/>
<path class="st4" d="M108.2,230.4c-5.7,3.1-8.7,8.6-6.7,12.2s8.2,4,13.9,0.9c2.5-1.4,4.5-3.2,5.7-5.1l24-13.5l-6.6-11.1l-22.9,14.5
	C113.3,228.3,110.7,229,108.2,230.4L108.2,230.4z"/>
<path class="st6" d="M189,145.5c0,0-9.4-3.6-12.6,0.7s-24.6,56.5-24.6,56.5l-31.4,16.4l8.8,15.4l40.4-13.4l26.6-48.7L189,145.5
	L189,145.5z"/>
<g>
	<path class="st1" d="M485.1,317v106c0,9.4-7.6,17-17,17h-262c-9.4,0-17-7.6-17-17V317c0-9.4,7.6-17,17-17h262
		C477.5,300,485.1,307.6,485.1,317z"/>
	<path class="st0" d="M485.1,317v106c0,9.4-7.6,17-17,17h-262c-9.4,0-17-7.6-17-17V317c0-9.4,7.6-17,17-17h262
		C477.5,300,485.1,307.6,485.1,317z M468.1,438c8.3,0,15-6.7,15-15v-53.4c0-37.3-30.2-67.6-67.6-67.6H206.1c-8.3,0-15,6.7-15,15v106
		c0,8.3,6.7,15,15,15H468.1z"/>
	<g>
		<path class="st2" d="M306.8,364h-34.2c-0.9,0-1.6,0.7-1.6,1.6s0.7,1.6,1.6,1.6h34.2c0.9,0,1.6-0.7,1.6-1.6S307.6,364,306.8,364z"
			/>
		<path class="st2" d="M358.8,364h-34.2c-0.9,0-1.6,0.7-1.6,1.6s0.7,1.6,1.6,1.6h34.2c0.9,0,1.6-0.7,1.6-1.6S359.6,364,358.8,364z"
			/>
	</g>
	<g>
		<path class="st2" d="M306.8,381.1h-34.2c-0.9,0-1.6,0.7-1.6,1.6s0.7,1.6,1.6,1.6h34.2c0.9,0,1.6-0.7,1.6-1.6
			S307.6,381.1,306.8,381.1z"/>
		<path class="st2" d="M358.8,381.1h-34.2c-0.9,0-1.6,0.7-1.6,1.6s0.7,1.6,1.6,1.6h34.2c0.9,0,1.6-0.7,1.6-1.6
			S359.6,381.1,358.8,381.1z"/>
		<path class="st2" d="M412.3,382.7c0-0.9-0.7-1.6-1.6-1.6h-34.2c-0.9,0-1.6,0.7-1.6,1.6s0.7,1.6,1.6,1.6h34.2
			C411.6,384.3,412.3,383.6,412.3,382.7z"/>
	</g>
	<g>
		<path class="st2" d="M286.8,350.4c0.9,0,1.6-0.7,1.6-1.6s-0.7-1.6-1.6-1.6h-34.2c-0.9,0-1.6,0.7-1.6,1.6s0.7,1.6,1.6,1.6H286.8z"
			/>
		<path class="st2" d="M387.5,349.7h34.2c0.9,0,1.6-0.7,1.6-1.6s-0.7-1.6-1.6-1.6h-34.2c-0.9,0-1.6,0.7-1.6,1.6
			S386.7,349.7,387.5,349.7z"/>
		<path class="st2" d="M301.2,350.1h70.9c0.9,0,1.6-0.7,1.6-1.6s-0.7-1.6-1.6-1.6h-70.9c-0.9,0-1.6,0.7-1.6,1.6
			S300.3,350.1,301.2,350.1z"/>
	</g>
	<path class="st2" d="M329.1,396.7h-34.2c-0.9,0-1.6,0.7-1.6,1.6s0.7,1.6,1.6,1.6h34.2c0.9,0,1.6-0.7,1.6-1.6S330,396.7,329.1,396.7
		z"/>
	<g>
		<path class="st1" d="M439.6,316.2v106c0,9.4-7.6,17-17,17h-106c-9.4,0-17-7.6-17-17v-106c0-9.4,7.6-17,17-17h106
			C432,299.2,439.6,306.8,439.6,316.2z"/>
		<path class="st0" d="M439.6,316.2v106c0,9.4-7.6,17-17,17h-106c-9.4,0-17-7.6-17-17v-106c0-9.4,7.6-17,17-17h106
			C432,299.2,439.6,306.8,439.6,316.2z M416,437.2c11.9,0,21.6-9.7,21.6-21.6v-46.9c0-37.3-30.2-67.6-67.6-67.6h-53.4
			c-8.3,0-15,6.7-15,15v91.2c0,16.5,13.3,29.8,29.8,29.8L416,437.2L416,437.2L416,437.2z"/>
		<path class="st2" d="M383.7,342.5h-34.2c-0.9,0-1.6-0.7-1.6-1.6s0.7-1.6,1.6-1.6h34.2c0.9,0,1.6,0.7,1.6,1.6
			S384.6,342.5,383.7,342.5L383.7,342.5z"/>
		<path class="st2" d="M383.7,375.9h-34.2c-0.9,0-1.6-0.7-1.6-1.6s0.7-1.6,1.6-1.6h34.2c0.9,0,1.6,0.7,1.6,1.6
			S384.6,375.9,383.7,375.9L383.7,375.9z"/>
		<path class="st2" d="M366.7,421.9h-34.2c-0.9,0-1.6-0.7-1.6-1.6s0.7-1.6,1.6-1.6h34.2c0.9,0,1.6,0.7,1.6,1.6
			S367.6,421.9,366.7,421.9L366.7,421.9z"/>
		<path class="st2" d="M402.1,359.2h-70.9c-0.9,0-1.6-0.7-1.6-1.6s0.7-1.6,1.6-1.6h70.9c0.9,0,1.6,0.7,1.6,1.6
			S402.9,359.2,402.1,359.2L402.1,359.2z"/>
	</g>
	<g>
		<g>
			<path class="st2" d="M419.7,257.5c0-33.1-27.9-51.3-59.9-59.9c-40.9-11-70.9,11.3-59.9,59.9c2.5,11,8.5,23.9,15.9,34.9h58.8
				C394.2,279.5,419.7,283.1,419.7,257.5z"/>
			<path class="st2" d="M358.9,320c3.3-6.4,7.6-11,12.2-14.5h-55C330.3,325.7,349.1,338.7,358.9,320z"/>
		</g>
		<path class="st1" d="M352.6,222.1c3.5,0,6.4,2.9,6.4,6.4v12.8h-12.8v-12.8C346.2,224.9,349,222.1,352.6,222.1z M362.2,241.3v-12.8
			c0-5.3-4.3-9.6-9.6-9.6s-9.6,4.3-9.6,9.6v12.8c-3.5,0-6.4,2.9-6.4,6.4v16c0,3.5,2.9,6.4,6.4,6.4h19.2c3.5,0,6.4-2.9,6.4-6.4v-16
			C368.6,244.1,365.7,241.3,362.2,241.3L362.2,241.3L362.2,241.3z M343,244.5h19.2c1.8,0,3.2,1.4,3.2,3.2v16c0,1.8-1.4,3.2-3.2,3.2
			H343c-1.8,0-3.2-1.4-3.2-3.2v-16C339.8,245.9,341.2,244.5,343,244.5L343,244.5z"/>
	</g>
</g>
<path class="st4" d="M261.2,296.5c-0.8,6.4,1.9,12.1,6,12.5s8-4.3,8.8-10.8c0.3-2.8,0-5.5-0.8-7.6l2.9-27.3l-12.9-1.1l-1.5,27.1
	C262.4,291.2,261.5,293.7,261.2,296.5z"/>
<path class="st6" d="M264.2,133.5c0,0,14-4,17,2s10,85,10,85l-13.5,63.1l-15.5-4.1l8-64l-11-48L264.2,133.5z"/>
<g>
	<circle class="st2" cx="58.5" cy="266.8" r="58.5"/>
	<path class="st1" d="M58.5,240.7c4.1,0,7.5,3.4,7.5,7.5v15H51v-15C51,244,54.4,240.7,58.5,240.7L58.5,240.7z M69.7,263.1v-15
		c0-6.2-5-11.2-11.2-11.2s-11.2,5-11.2,11.2v15c-4.1,0-7.5,3.4-7.5,7.5v18.7c0,4.1,3.4,7.5,7.5,7.5h22.4c4.1,0,7.5-3.4,7.5-7.5
		v-18.7C77.2,266.4,73.9,263.1,69.7,263.1L69.7,263.1z M47.3,266.8h22.4c2.1,0,3.7,1.7,3.7,3.7v18.7c0,2.1-1.7,3.7-3.7,3.7H47.3
		c-2.1,0-3.7-1.7-3.7-3.7v-18.7C43.5,268.5,45.2,266.8,47.3,266.8z"/>
</g>
<path class="st7" d="M391,65.8c0,0.3-0.1,0.5-0.3,0.8c-0.2,0.2-0.4,0.4-0.6,0.6c-0.5,0.3-0.9,0.5-1.4,0.6c-0.9,0.3-1.9,0.6-2.9,1
	c-1.1,0.4-2.1,0.7-2.9,1c-1.1,0.4-2.1,0.7-3.1,1.1c-0.7,0.3-1.4,0.7-2.1,1.2c-0.6,0.5-1.1,1.1-1.5,1.8c-0.4,0.7-0.7,1.7-0.7,2.8
	c0,2.2,0.5,4,1.6,5c1.1,1.1,3.1,1.7,6.1,1.7c3.1,0,5.1-0.6,6.2-1.8c1.1-1.2,1.6-2.8,1.6-5L391,65.8L391,65.8z M383.2,42.1
	c5.3,0,9.3,1,11.8,3.1c2.5,2,3.8,4.6,3.8,7.7v26.4c0,1.1-0.2,2.2-0.6,3.5c-0.4,1.3-1.1,2.5-2.3,3.5c-1.1,1.1-2.7,2-4.7,2.7
	c-2,0.7-4.6,1.1-7.9,1.1c-3.2,0-5.8-0.4-7.9-1.1c-2-0.7-3.6-1.6-4.7-2.7c-1.1-1-1.9-2.2-2.3-3.5c-0.4-1.3-0.6-2.5-0.6-3.5v-4.2
	c0-2.2,0.6-4.3,1.8-6.1c1.2-1.9,2.9-3.1,5.1-3.9c1.1-0.4,2.3-0.7,3.8-1.2c1.4-0.5,2.7-1,4-1.4c1.3-0.4,2.5-0.9,3.4-1.2
	c0.6-0.2,1.2-0.4,1.8-0.6l1-0.5c0.4-0.2,0.8-0.5,1.1-1c0.4-0.4,0.7-0.9,1-1.4c0.3-0.6,0.4-1.2,0.4-1.9v-1.7c0-0.6-0.1-1.2-0.4-1.8
	c-0.2-0.6-0.7-1.2-1.3-1.8c-0.6-0.5-1.4-1-2.4-1.3c-1-0.3-2.3-0.5-3.8-0.5c-3.1,0-5.1,0.6-6.2,1.8c-0.9,1.1-1.5,2.4-1.6,3.9
	c0,0.3-0.3,0.5-0.6,0.5l-6.7,0.1c-0.2,0-0.3-0.1-0.4-0.2c-0.1-0.1-0.2-0.3-0.2-0.4V53c0-1.5,0.3-2.9,0.9-4.2
	c0.6-1.3,1.5-2.5,2.8-3.4c1.3-1,2.9-1.8,4.9-2.3C378.1,42.4,380.4,42.1,383.2,42.1L383.2,42.1z"/>
</svg>
